<svg width="78" height="72" viewBox="0 0 78 72" fill="none" xmlns="http://www.w3.org/2000/svg">
<path d="M15.3229 2.62607e-07C14.5653 -0.000267466 13.822 0.204182 13.1723 0.591478C12.5226 0.978774 11.9911 1.53435 11.6346 2.19877L0.491606 22.968C0.110852 23.6777 -0.0544512 24.482 0.015769 25.2833C0.0859892 26.0845 0.388712 26.8483 0.887181 27.4818L28.3768 62.4628C28.0326 61.052 27.8587 59.6055 27.8587 58.1538C27.8579 55.5096 28.6188 52.9205 30.0514 50.6926C31.484 48.4646 33.5284 46.691 35.9429 45.5815L31.1904 30.4615H36.4443C36.9716 27.3699 38.3681 24.4897 40.4725 22.1538H30.0761L33.5583 8.30769H44.445L46.824 17.7618C49.4786 16.7263 52.3555 16.3831 55.1812 16.7649L53.0641 8.30769H60.1733L67.6001 22.1538H65.3882C67.276 24.2431 68.5984 26.7752 69.2309 29.5122C69.8634 32.2493 69.7854 35.1012 69.0041 37.8L77.1161 27.4818C77.6137 26.8477 77.9154 26.0837 77.9847 25.2824C78.0539 24.4812 77.8877 23.6772 77.5061 22.968L66.3632 2.19877C66.0071 1.53518 65.4764 0.980145 64.8278 0.592901C64.1792 0.205658 63.437 0.000735845 62.6804 2.62607e-07H15.3229ZM10.4033 22.1538L17.83 8.30769H24.9448L21.4626 22.1538H10.4033ZM13.8353 30.4615H22.4377L28.1707 48.6997L13.8353 30.4615ZM64.0733 33.2308C64.0733 36.1686 62.8993 38.986 60.8096 41.0633C58.7199 43.1407 55.8856 44.3077 52.9303 44.3077C49.9751 44.3077 47.1408 43.1407 45.0511 41.0633C42.9614 38.986 41.7874 36.1686 41.7874 33.2308C41.7874 30.293 42.9614 27.4755 45.0511 25.3982C47.1408 23.3209 49.9751 22.1538 52.9303 22.1538C55.8856 22.1538 58.7199 23.3209 60.8096 25.3982C62.8993 27.4755 64.0733 30.293 64.0733 33.2308ZM72.4305 58.1538C72.4305 65.0492 66.859 72 52.9303 72C39.0017 72 33.4302 65.0769 33.4302 58.1538C33.4302 55.9505 34.3107 53.8374 35.8779 52.2794C37.4452 50.7214 39.5709 49.8462 41.7874 49.8462H64.0733C66.2898 49.8462 68.4155 50.7214 69.9827 52.2794C71.55 53.8374 72.4305 55.9505 72.4305 58.1538Z" fill="#CEAD73"/>
</svg>
