<svg width="40" height="70" viewBox="0 0 40 70" fill="none" xmlns="http://www.w3.org/2000/svg">
<path d="M34.8792 70H36.5004C37.1329 69.8158 37.6854 69.425 38.0699 68.8901C38.4543 68.3551 38.6485 67.7067 38.6213 67.0485C38.5942 66.3903 38.3473 65.7601 37.9201 65.2586C37.493 64.7571 36.9101 64.4131 36.2645 64.2817H35.4392C35.3212 64.2836 35.2048 64.2547 35.1014 64.1978C34.998 64.141 34.9112 64.0581 34.8497 63.9574C32.7388 61.0013 30.8755 57.8761 29.2787 54.6135C29.2219 54.5043 29.1922 54.3829 29.1922 54.2598C29.1922 54.1367 29.2219 54.0153 29.2787 53.9061C29.3473 53.8031 29.4389 53.7175 29.5464 53.6561C29.6539 53.5947 29.7741 53.5591 29.8977 53.5524H32.0495C32.4866 53.6712 32.9453 53.6876 33.3898 53.6004C33.8344 53.5132 34.2528 53.3248 34.6127 53.0496C34.9726 52.7745 35.2642 52.4201 35.4649 52.014C35.6657 51.6079 35.7701 51.161 35.7701 50.7079C35.7701 50.2549 35.6657 49.808 35.4649 49.4019C35.2642 48.9958 34.9726 48.6414 34.6127 48.3663C34.2528 48.0911 33.8344 47.9027 33.3898 47.8155C32.9453 47.7283 32.4866 47.7447 32.0495 47.8635H27.068C26.9086 47.8635 26.7534 47.8118 26.6259 47.7161C26.4983 47.6205 26.4052 47.486 26.3606 47.3329C25.2941 44.0483 24.5826 40.6589 24.2383 37.2227C24.2335 37.1203 24.2493 37.0179 24.2847 36.9217C24.3202 36.8255 24.3746 36.7374 24.4447 36.6626C24.5101 36.5865 24.5917 36.5258 24.6834 36.485C24.7752 36.4443 24.8748 36.4244 24.9752 36.4268H31.3715C32.0089 36.2671 32.5746 35.899 32.9788 35.3809C33.383 34.8629 33.6025 34.2247 33.6025 33.5676C33.6025 32.9106 33.383 32.2724 32.9788 31.7543C32.5746 31.2363 32.0089 30.8682 31.3715 30.7085H24.9457C24.846 30.7071 24.7475 30.6856 24.6563 30.645C24.5651 30.6045 24.483 30.5458 24.4152 30.4727C24.3451 30.3979 24.2907 30.3097 24.2553 30.2135C24.2198 30.1173 24.204 30.015 24.2088 29.9126C24.4334 27.4727 24.8673 25.0566 25.5058 22.691C25.5493 22.5348 25.6412 22.3965 25.7684 22.2958C25.8955 22.1952 26.0512 22.1375 26.2132 22.1309H34.2307C34.6679 22.2497 35.1265 22.2662 35.571 22.179C36.0156 22.0918 36.434 21.9033 36.7939 21.6282C37.1538 21.353 37.4454 20.9987 37.6462 20.5925C37.8469 20.1864 37.9513 19.7395 37.9513 19.2865C37.9513 18.8335 37.8469 18.3866 37.6462 17.9805C37.4454 17.5744 37.1538 17.22 36.7939 16.9448C36.434 16.6697 36.0156 16.4812 35.571 16.394C35.1265 16.3068 34.6679 16.3233 34.2307 16.4421H29.0134C28.8899 16.4353 28.7696 16.3998 28.6621 16.3384C28.5547 16.277 28.463 16.1914 28.3944 16.0884C28.3293 15.9819 28.2949 15.8595 28.2949 15.7346C28.2949 15.6098 28.3293 15.4874 28.3944 15.3809C30.0842 12.0092 32.1722 8.85241 34.6139 5.97808C34.7518 5.82696 34.9408 5.73242 35.1445 5.7128H36.8246C38.4163 5.7128 39.1827 4.56323 39.2711 2.97153C39.2729 2.22424 38.9909 1.50416 38.4819 0.956942C37.973 0.409726 37.2753 0.0762319 36.5298 0.0239241C36.1768 -0.00797471 35.8217 -0.00797471 35.4687 0.0239241H35.0266C30.5036 -0.0698216 26.0067 0.731839 21.7948 2.38277C17.5828 4.0337 13.7389 6.5013 10.4843 9.64356C7.22976 12.7858 4.62873 16.5407 2.83095 20.6921C1.03317 24.8435 0.0741323 29.3094 0.00903227 33.8329C-0.0965143 38.5026 0.723864 43.1469 2.42281 47.4979C4.12176 51.8488 6.66564 55.8202 9.9076 59.1827C13.1496 62.5452 17.0254 65.2324 21.3114 67.089C25.5974 68.9457 30.2087 69.935 34.8792 70ZM26.6259 61.6583C26.7108 61.7847 26.7561 61.9334 26.7561 62.0857C26.7561 62.2379 26.7108 62.3867 26.6259 62.5131C26.5341 62.6299 26.4066 62.7134 26.2628 62.7507C26.119 62.7879 25.967 62.777 25.83 62.7194C21.187 61.1419 17.0192 58.414 13.7154 54.7904C13.6355 54.673 13.5929 54.5344 13.5929 54.3924C13.5929 54.2505 13.6355 54.1119 13.7154 53.9945C13.7678 53.865 13.8573 53.754 13.9727 53.6753C14.0881 53.5966 14.2242 53.5538 14.3639 53.5524H22.3224C22.4728 53.5561 22.6191 53.6023 22.7444 53.6858C22.8696 53.7693 22.9685 53.8865 23.0298 54.024C24.0575 56.6458 25.2589 59.1962 26.6259 61.6583ZM13.0669 15.2041C16.2828 11.6766 20.3387 9.01994 24.8573 7.48136C24.9987 7.42158 25.1556 7.40938 25.3045 7.4466C25.4533 7.48382 25.5861 7.56844 25.6826 7.68769C25.7638 7.79621 25.8148 7.92431 25.8303 8.05894C25.8459 8.19357 25.8254 8.32991 25.7711 8.45407C24.2892 10.819 23.0074 13.3036 21.9392 15.882C21.8862 16.0194 21.7933 16.1377 21.6725 16.2217C21.5517 16.3058 21.4084 16.3517 21.2612 16.3536H13.5975C13.4537 16.3541 13.3128 16.3125 13.1924 16.234C13.0719 16.1554 12.9771 16.0433 12.9195 15.9115C12.8813 15.7909 12.8747 15.6624 12.9006 15.5385C12.9264 15.4146 12.9837 15.2994 13.0669 15.2041ZM8.08546 22.5731C8.14299 22.4413 8.23783 22.3292 8.3583 22.2506C8.47877 22.172 8.61959 22.1304 8.76341 22.1309H18.7853C18.9233 22.0974 19.068 22.1044 19.2021 22.1511C19.3362 22.1979 19.454 22.2824 19.5412 22.3945C19.6284 22.5066 19.6813 22.6416 19.6936 22.7831C19.7059 22.9246 19.6771 23.0666 19.6106 23.1921C19.0926 25.4916 18.7478 27.8268 18.5789 30.1779C18.5641 30.3629 18.4799 30.5356 18.3433 30.6613C18.2067 30.7869 18.0277 30.8564 17.842 30.8558H6.78852C6.6815 30.8549 6.57597 30.8307 6.47925 30.7849C6.38254 30.7391 6.29696 30.6728 6.22847 30.5906C6.15458 30.5132 6.10003 30.4195 6.06929 30.317C6.03855 30.2146 6.0325 30.1063 6.05162 30.001C6.40834 27.4481 7.09189 24.9516 8.08546 22.5731ZM8.55708 47.4214C6.98889 44.2191 5.9914 40.7678 5.60948 37.2227C5.59281 37.122 5.60014 37.0188 5.63087 36.9215C5.6616 36.8242 5.71487 36.7355 5.78633 36.6626C5.93448 36.513 6.13586 36.4282 6.34638 36.4268H17.842C17.9349 36.4229 18.0277 36.4373 18.1151 36.4692C18.2024 36.5012 18.2826 36.55 18.3511 36.613C18.4195 36.6759 18.4749 36.7518 18.514 36.8362C18.5531 36.9206 18.5751 37.0118 18.5789 37.1048C18.8493 40.4239 19.4316 43.7103 20.318 46.9203C20.3675 47.0212 20.3932 47.1321 20.3932 47.2445C20.3932 47.3569 20.3675 47.4678 20.318 47.5687C20.2479 47.6586 20.1585 47.7317 20.0566 47.7827C19.9546 47.8337 19.8425 47.8613 19.7285 47.8635H9.35293C9.20911 47.864 9.06829 47.8224 8.94782 47.7439C8.82735 47.6653 8.73251 47.5532 8.67498 47.4214H8.55708Z" fill="#CEAD73"/>
</svg>
