<svg width="24" height="24" viewBox="0 0 24 24" fill="none" xmlns="http://www.w3.org/2000/svg">
<circle cx="12" cy="12" r="12" fill="#CEAD73"/>
<path d="M16.2 7H7.8C7.32261 7 6.86477 7.19754 6.52721 7.54917C6.18964 7.90081 6 8.37772 6 8.875V15.125C6 15.6223 6.18964 16.0992 6.52721 16.4508C6.86477 16.8025 7.32261 17 7.8 17H16.2C16.6774 17 17.1352 16.8025 17.4728 16.4508C17.8104 16.0992 18 15.6223 18 15.125V8.875C18 8.37772 17.8104 7.90081 17.4728 7.54917C17.1352 7.19754 16.6774 7 16.2 7ZM16.2 8.25L12.3 11.0438C12.2088 11.0986 12.1053 11.1275 12 11.1275C11.8947 11.1275 11.7912 11.0986 11.7 11.0438L7.8 8.25H16.2Z" fill="#0D3730"/>
</svg>
