<svg width="71" height="72" viewBox="0 0 71 72" fill="none" xmlns="http://www.w3.org/2000/svg">
<path d="M35.3397 18.2567C35.3397 15.2554 34.1521 12.3769 32.0387 10.2546C29.9252 8.13235 27.0587 6.93976 24.0699 6.93976C21.0812 6.93984 18.2145 8.13242 16.1012 10.2546C13.988 12.3768 12.801 15.2555 12.801 18.2567C12.8011 21.2577 13.9881 24.1358 16.1012 26.2579C18.2145 28.3801 21.0812 29.5727 24.0699 29.5728C27.0587 29.5728 29.9252 28.3802 32.0387 26.2579C34.152 24.1357 35.3396 21.2578 35.3397 18.2567ZM71 41.0506L48.8586 70.4362L33.763 58.9456L37.9372 53.4155L47.5206 60.7102L65.4895 36.8632L71 41.0506ZM42.2506 18.2567C42.2505 23.0984 40.335 27.7418 36.9257 31.1654C36.5068 31.586 36.0692 31.9836 35.6156 32.3582C37.5593 33.3808 39.3369 34.6637 40.905 36.1754L41.3175 36.5837L41.3226 36.5888C43.8865 39.1991 45.8053 42.3771 46.9233 45.8675L40.344 47.9929C39.5578 45.5385 38.2099 43.3029 36.4077 41.4666C33.3924 38.4097 29.1044 36.5125 24.0699 36.5125C14.1987 36.5127 6.91105 43.8308 6.91086 53.7433V65.0602H32.9051V72H0V53.7433C0.000134355 44.2509 4.95198 36.3427 12.5243 32.3573C12.0709 31.983 11.6336 31.5857 11.215 31.1654C7.80559 27.7418 5.89019 23.0984 5.89009 18.2567C5.89009 13.4148 7.8055 8.77086 11.215 5.34714C14.6244 1.92354 19.2484 8.17187e-05 24.0699 0C28.8916 0 33.5162 1.92342 36.9257 5.34714C40.3351 8.77085 42.2506 13.4148 42.2506 18.2567Z" fill="#CEAD73"/>
</svg>
