<svg width="21" height="22" viewBox="0 0 21 22" fill="none" xmlns="http://www.w3.org/2000/svg">
<rect x="0.17215" width="20.8279" height="21.6957" fill="white"/>
<path d="M15.4111 10.6852C15.2726 10.6852 15.1398 10.7402 15.0419 10.8381C14.944 10.936 14.889 11.0688 14.889 11.2072V14.3395C14.889 14.478 14.834 14.6108 14.7361 14.7087C14.6382 14.8066 14.5054 14.8616 14.367 14.8616H8.10238C7.96392 14.8616 7.83113 14.8066 7.73323 14.7087C7.63533 14.6108 7.58032 14.478 7.58032 14.3395V8.07491C7.58032 7.93645 7.63533 7.80367 7.73323 7.70576C7.83113 7.60786 7.96392 7.55286 8.10238 7.55286H11.2347C11.3731 7.55286 11.5059 7.49786 11.6038 7.39995C11.7017 7.30205 11.7567 7.16927 11.7567 7.03081C11.7567 6.89235 11.7017 6.75957 11.6038 6.66166C11.5059 6.56376 11.3731 6.50876 11.2347 6.50876H8.10238C7.68701 6.50876 7.28865 6.67376 6.99494 6.96747C6.70123 7.26118 6.53622 7.65954 6.53622 8.07491V14.3395C6.53622 14.7549 6.70123 15.1532 6.99494 15.4469C7.28865 15.7407 7.68701 15.9057 8.10238 15.9057H14.367C14.7823 15.9057 15.1807 15.7407 15.4744 15.4469C15.7681 15.1532 15.9331 14.7549 15.9331 14.3395V11.2072C15.9331 11.0688 15.8781 10.936 15.7802 10.8381C15.6823 10.7402 15.5495 10.6852 15.4111 10.6852Z" fill="#0D3730"/>
<path d="M13.3229 7.55283H14.1477L10.864 10.8313C10.8151 10.8798 10.7762 10.9376 10.7497 11.0012C10.7232 11.0648 10.7096 11.133 10.7096 11.202C10.7096 11.2709 10.7232 11.3391 10.7497 11.4027C10.7762 11.4663 10.8151 11.5241 10.864 11.5726C10.9125 11.6215 10.9703 11.6604 11.0339 11.6869C11.0975 11.7134 11.1658 11.727 11.2347 11.727C11.3036 11.727 11.3718 11.7134 11.4354 11.6869C11.4991 11.6604 11.5568 11.6215 11.6053 11.5726L14.889 8.29414V9.11898C14.889 9.25744 14.944 9.39022 15.0419 9.48812C15.1398 9.58603 15.2726 9.64103 15.4111 9.64103C15.5495 9.64103 15.6823 9.58603 15.7802 9.48812C15.8781 9.39022 15.9331 9.25744 15.9331 9.11898V7.03078C15.9331 6.89232 15.8781 6.75954 15.7802 6.66163C15.6823 6.56373 15.5495 6.50873 15.4111 6.50873H13.3229C13.1844 6.50873 13.0516 6.56373 12.9537 6.66163C12.8558 6.75954 12.8008 6.89232 12.8008 7.03078C12.8008 7.16923 12.8558 7.30202 12.9537 7.39992C13.0516 7.49783 13.1844 7.55283 13.3229 7.55283Z" fill="#0D3730"/>
</svg>
