<svg width="112" height="103" viewBox="0 0 112 103" fill="none" xmlns="http://www.w3.org/2000/svg">
<rect width="112" height="103" fill="#CEAD73"/>
<path d="M66.2971 46.3912C66.2971 48.9402 65.2845 51.3848 63.4821 53.1872C61.6798 54.9896 59.2352 56.0021 56.6862 56.0021C54.1372 56.0021 51.6927 54.9896 49.8903 53.1872C48.0879 51.3848 47.0753 48.9402 47.0753 46.3912C47.0753 43.8423 48.0879 41.3977 49.8903 39.5953C51.6927 37.7929 54.1372 36.7803 56.6862 36.7803C59.2352 36.7803 61.6798 37.7929 63.4821 39.5953C65.2845 41.3977 66.2971 43.8423 66.2971 46.3912Z" stroke="#0D3730" stroke-width="5.5"/>
<path d="M82.3603 52.4875C84.0422 51.9814 84.8847 51.7283 85.2019 51.3022C85.519 50.8761 85.519 50.1937 85.519 48.8258V43.9563C85.519 42.5883 85.519 41.9059 85.2019 41.4799C84.8847 41.0538 84.0422 40.8007 82.3603 40.2945C77.0326 38.6927 73.6944 33.1664 74.8926 27.8228C75.2866 26.0608 75.4821 25.1766 75.2674 24.6928C75.0528 24.2123 74.4537 23.8695 73.2491 23.1935L68.8441 20.7043C67.6716 20.0443 67.0853 19.7112 66.5663 19.7752C66.0441 19.8393 65.413 20.4288 64.154 21.6077C60.0021 25.4937 53.377 25.4937 49.2251 21.6077C47.9628 20.4256 47.3349 19.8361 46.8127 19.7752C46.2905 19.7112 45.7043 20.0443 44.5318 20.7043L40.1268 23.1935C38.9254 23.8695 38.3231 24.2091 38.1085 24.6928C37.8938 25.1766 38.0924 26.0576 38.4865 27.8228C39.6815 33.1664 36.3401 38.6927 31.0156 40.2945C29.3305 40.8007 28.4848 41.0538 28.1708 41.4799C27.8536 41.9059 27.8536 42.5883 27.8536 43.9563V48.8258C27.8536 50.1937 27.8536 50.8761 28.1708 51.3022C28.488 51.7283 29.3305 51.9814 31.0156 52.4875C36.3401 54.0894 39.6782 59.6156 38.4801 64.9593C38.086 66.7213 37.8874 67.6055 38.1053 68.0892C38.3231 68.573 38.919 68.9126 40.1236 69.5885L44.5285 72.0778C45.7011 72.7377 46.2873 73.0709 46.8063 73.0068C47.3285 72.9427 47.9596 72.3565 49.2187 71.1743C53.3738 67.2851 60.0053 67.2851 64.1572 71.1743C65.4194 72.3533 66.0474 72.9459 66.5695 73.0068C67.0917 73.0709 67.678 72.7377 68.8473 72.0778L73.2555 69.5885C74.4569 68.9126 75.0592 68.573 75.2738 68.0892C75.4885 67.6055 75.2898 66.7245 74.8958 64.9593C73.6976 59.6156 77.0326 54.0894 82.3603 52.4875Z" stroke="#0D3730" stroke-width="5.5" stroke-linecap="round"/>
<path d="M88.7225 70.4186C88.7225 73.398 88.7225 74.8877 88.3957 76.1083C87.9592 77.7385 87.1011 79.2251 85.9077 80.4184C84.7144 81.6118 83.2278 82.4699 81.5976 82.9064C80.3802 83.2331 78.8873 83.2331 75.9079 83.2331H37.4643C34.4849 83.2331 32.9952 83.2331 31.7747 82.9064C30.1444 82.4699 28.6579 81.6118 27.4645 80.4184C26.2711 79.2251 25.4131 77.7385 24.9766 76.1083C24.6498 74.8909 24.6498 73.398 24.6498 70.4186" stroke="#0D3730" stroke-width="5.5" stroke-linecap="round"/>
</svg>
