<svg width="165" height="165" viewBox="0 0 165 165" fill="none" xmlns="http://www.w3.org/2000/svg">
<path d="M12.3126 121.647C12.3126 126.446 14.2188 131.048 17.6118 134.441C21.0049 137.834 25.6068 139.74 30.4053 139.74C35.2038 139.74 39.8057 137.834 43.1988 134.441C46.5918 131.048 48.498 126.446 48.498 121.647C48.498 116.849 46.5918 112.247 43.1988 108.854C39.8057 105.461 35.2038 103.555 30.4053 103.555C25.6068 103.555 21.0049 105.461 17.6118 108.854C14.2188 112.247 12.3126 116.849 12.3126 121.647Z" stroke="#CEAD73" stroke-width="9" stroke-linecap="round" stroke-linejoin="round"/>
<path d="M56.2522 160.417C53.7538 155.733 50.0292 151.815 45.4766 149.084C40.924 146.352 35.7147 144.909 30.4055 144.909C25.0963 144.909 19.887 146.352 15.3344 149.084C10.7818 151.815 7.05721 155.733 4.55878 160.417M115.7 121.647C115.7 124.023 116.168 126.376 117.077 128.571C117.986 130.766 119.319 132.761 120.999 134.441C122.679 136.121 124.673 137.454 126.869 138.363C129.064 139.272 131.416 139.74 133.792 139.74C136.168 139.74 138.521 139.272 140.716 138.363C142.911 137.454 144.906 136.121 146.586 134.441C148.266 132.761 149.599 130.766 150.508 128.571C151.417 126.376 151.885 124.023 151.885 121.647C151.885 116.849 149.979 112.247 146.586 108.854C143.193 105.461 138.591 103.555 133.792 103.555C128.994 103.555 124.392 105.461 120.999 108.854C117.606 112.247 115.7 116.849 115.7 121.647Z" stroke="#CEAD73" stroke-width="9" stroke-linecap="round" stroke-linejoin="round"/>
<path d="M159.638 160.418C157.14 155.733 153.415 151.816 148.863 149.084C144.31 146.353 139.101 144.91 133.792 144.91C128.483 144.91 123.273 146.353 118.721 149.084C114.168 151.816 110.443 155.733 107.945 160.418M104.492 57.0308C101.729 53.7886 98.2952 51.1848 94.4277 49.3993C90.5602 47.6137 86.3512 46.689 82.0914 46.689C77.8316 46.689 73.6226 47.6137 69.7551 49.3993C65.8876 51.1848 62.4538 53.7886 59.6909 57.0308M61.7724 135.998C74.9733 141.029 89.571 140.984 102.741 135.874M43.149 41.5228C37.4915 46.8232 32.982 53.2282 29.8996 60.3415C26.8171 67.4548 25.2274 75.1251 25.2286 82.8775C25.2286 84.6213 25.332 86.3238 25.4905 88.0469M138.699 88.0469C138.851 86.3376 138.961 84.6007 138.961 82.8775C138.962 75.1251 137.373 67.4548 134.29 60.3415C131.208 53.2282 126.698 46.8232 121.041 41.5228M64.0056 23.4301C64.0056 25.8061 64.4736 28.1588 65.3828 30.3539C66.292 32.549 67.6247 34.5435 69.3048 36.2236C70.9849 37.9036 72.9794 39.2363 75.1745 40.1456C77.3696 41.0548 79.7223 41.5228 82.0983 41.5228C84.4742 41.5228 86.8269 41.0548 89.0221 40.1456C91.2172 39.2363 93.2117 37.9036 94.8917 36.2236C96.5718 34.5435 97.9045 32.549 98.8138 30.3539C99.723 28.1588 100.191 25.8061 100.191 23.4301C100.191 18.6316 98.2848 14.0297 94.8917 10.6366C91.4987 7.24359 86.8968 5.3374 82.0983 5.3374C77.2998 5.3374 72.6979 7.24359 69.3048 10.6366C65.9118 14.0297 64.0056 18.6316 64.0056 23.4301Z" stroke="#CEAD73" stroke-width="9" stroke-linecap="round" stroke-linejoin="round"/>
</svg>
