<svg width="69" height="70" viewBox="0 0 69 70" fill="none" xmlns="http://www.w3.org/2000/svg">
<path d="M5.23516 52.3186V64.689H17.4288L53.3921 28.1715L41.1984 15.8011L5.23516 52.3186ZM69 55.9802L55.1805 70L38.2719 52.8464L44.0273 47.0075L47.279 50.3063L55.3106 42.1253L59.9279 46.8096L55.1805 51.4939L58.6272 54.7926L63.2446 50.1744L69 55.9802ZM16.9736 31.1404L0 14.0198L13.8195 0L19.5424 5.83883L11.5108 14.0198L14.9901 17.5165L22.9892 9.33553L27.6065 14.0198L22.9892 18.6711L26.2408 21.9698L16.9736 31.1404ZM62.8219 18.5061C64.09 17.2196 64.09 15.2074 62.8219 13.8549L55.213 6.26767C54.0099 4.98115 51.8963 4.98115 50.6282 6.26767L44.6451 12.3044L56.8388 24.6748L62.8219 18.5061Z" fill="#CEAD73"/>
</svg>
