<svg width="29" height="29" viewBox="0 0 29 29" fill="none" xmlns="http://www.w3.org/2000/svg">
<path d="M28.2856 28.2856L20.4927 20.4927M12.6997 7.82906V17.5703M7.82906 12.6997H17.5703M12.6997 24.3891C11.1646 24.3891 9.64454 24.0868 8.22631 23.4993C6.80807 22.9119 5.51944 22.0508 4.43397 20.9654C3.3485 19.8799 2.48746 18.5913 1.90001 17.173C1.31256 15.7548 1.0102 14.2348 1.0102 12.6997C1.0102 11.1646 1.31256 9.64454 1.90001 8.22631C2.48746 6.80807 3.3485 5.51944 4.43397 4.43397C5.51944 3.3485 6.80807 2.48746 8.22631 1.90001C9.64454 1.31256 11.1646 1.0102 12.6997 1.0102C15.7999 1.0102 18.7732 2.24177 20.9654 4.43397C23.1576 6.62617 24.3891 9.59943 24.3891 12.6997C24.3891 15.7999 23.1576 18.7732 20.9654 20.9654C18.7732 23.1576 15.7999 24.3891 12.6997 24.3891Z" stroke="#0D3730" stroke-width="2"/>
</svg>
