<svg width="29" height="30" viewBox="0 0 29 30" fill="none" xmlns="http://www.w3.org/2000/svg">
<rect width="29" height="30" fill="#CEAD73"/>
<path d="M21.2718 14.775C21.0804 14.775 20.8968 14.851 20.7614 14.9864C20.626 15.1218 20.55 15.3054 20.55 15.4968V19.8281C20.55 20.0195 20.4739 20.2031 20.3385 20.3385C20.2031 20.4739 20.0195 20.55 19.8281 20.55H11.1656C10.9742 20.55 10.7906 20.4739 10.6552 20.3385C10.5198 20.2031 10.4437 20.0195 10.4437 19.8281V11.1656C10.4437 10.9742 10.5198 10.7906 10.6552 10.6552C10.7906 10.5198 10.9742 10.4437 11.1656 10.4437H15.4968C15.6883 10.4437 15.8719 10.3677 16.0073 10.2323C16.1427 10.0969 16.2187 9.91332 16.2187 9.72187C16.2187 9.53042 16.1427 9.34681 16.0073 9.21143C15.8719 9.07605 15.6883 9 15.4968 9H11.1656C10.5913 9 10.0404 9.22816 9.63429 9.63429C9.22816 10.0404 9 10.5913 9 11.1656V19.8281C9 20.4024 9.22816 20.9533 9.63429 21.3594C10.0404 21.7655 10.5913 21.9937 11.1656 21.9937H19.8281C20.4024 21.9937 20.9533 21.7655 21.3594 21.3594C21.7655 20.9533 21.9937 20.4024 21.9937 19.8281V15.4968C21.9937 15.3054 21.9176 15.1218 21.7823 14.9864C21.6469 14.851 21.4633 14.775 21.2718 14.775Z" fill="#0D3730"/>
<path d="M18.3843 10.4437H19.5249L14.9843 14.9771C14.9167 15.0442 14.8629 15.124 14.8263 15.212C14.7897 15.3 14.7708 15.3943 14.7708 15.4896C14.7708 15.5849 14.7897 15.6793 14.8263 15.7672C14.8629 15.8552 14.9167 15.9351 14.9843 16.0022C15.0514 16.0698 15.1313 16.1235 15.2192 16.1602C15.3072 16.1968 15.4015 16.2157 15.4968 16.2157C15.5921 16.2157 15.6865 16.1968 15.7745 16.1602C15.8624 16.1235 15.9423 16.0698 16.0094 16.0022L20.5499 11.4688V12.6094C20.5499 12.8008 20.626 12.9844 20.7614 13.1198C20.8968 13.2552 21.0804 13.3312 21.2718 13.3312C21.4633 13.3312 21.6469 13.2552 21.7823 13.1198C21.9176 12.9844 21.9937 12.8008 21.9937 12.6094V9.72187C21.9937 9.53042 21.9176 9.34681 21.7823 9.21143C21.6469 9.07605 21.4633 9 21.2718 9H18.3843C18.1929 9 18.0093 9.07605 17.8739 9.21143C17.7385 9.34681 17.6625 9.53042 17.6625 9.72187C17.6625 9.91332 17.7385 10.0969 17.8739 10.2323C18.0093 10.3677 18.1929 10.4437 18.3843 10.4437Z" fill="#0D3730"/>
</svg>
