<svg width="111" height="103" viewBox="0 0 111 103" fill="none" xmlns="http://www.w3.org/2000/svg">
<rect width="111" height="103" fill="#CEAD73"/>
<mask id="mask0_2009_6" style="mask-type:luminance" maskUnits="userSpaceOnUse" x="24" y="19" width="64" height="65">
<path d="M24.3304 19.7674H87.7957V83.2326H24.3304V19.7674Z" fill="white"/>
</mask>
<g mask="url(#mask0_2009_6)">
<path d="M77.7961 68.3579C77.796 73.8346 73.2705 78.2742 67.6877 78.2743H44.4384C38.8556 78.2742 34.33 73.8346 34.33 68.3579V34.642C34.33 29.1652 38.8556 24.7255 44.4384 24.7255H67.6877C73.2705 24.7255 77.7961 29.1652 77.7961 34.642V68.3579ZM82.8503 34.642C82.8503 26.4269 76.0618 19.7673 67.6877 19.7673H44.4384C36.0642 19.7673 29.2758 26.4269 29.2758 34.642V68.3579C29.2758 76.573 36.0642 83.2325 44.4384 83.2325H67.6877C76.0618 83.2325 82.8503 76.573 82.8503 68.3579V34.642Z" fill="#0D3730"/>
<path d="M63.9543 31.398C63.9543 33.5222 62.3142 35.2444 60.2911 35.2444H51.0109C48.9878 35.2444 47.3477 33.5222 47.3477 31.398C47.3477 29.9818 46.2543 28.8338 44.9056 28.8338C43.5568 28.8338 42.4634 29.9818 42.4634 31.398C42.4634 36.3546 46.2903 40.3729 51.0109 40.3729H60.2911C65.0117 40.3729 68.8386 36.3546 68.8386 31.398C68.8385 29.9818 67.7452 28.8338 66.3965 28.8338C65.0477 28.8338 63.9543 29.9818 63.9543 31.398Z" fill="#0D3730"/>
<path d="M68.869 56.8574C70.2178 56.8573 71.3111 55.7503 71.3111 54.3847C71.3111 53.0191 70.2178 51.912 68.869 51.912H60.5657C59.217 51.912 58.1235 53.0191 58.1235 54.3847C58.1235 55.7503 59.217 56.8574 60.5657 56.8574H68.869Z" fill="#0D3730"/>
<path d="M68.869 70.045C70.2178 70.045 71.3111 68.7535 71.3111 67.1603C71.3111 65.5671 70.2178 64.2755 68.869 64.2755H60.5657C59.217 64.2755 58.1235 65.5671 58.1235 67.1603C58.1235 68.7535 59.217 70.045 60.5657 70.045H68.869Z" fill="#0D3730"/>
<path d="M43.8472 55.3476C45.7995 57.345 48.9641 57.3604 50.9354 55.3945L50.9818 55.3477L50.9864 55.3429L55.7594 50.4339C56.7233 49.4424 56.7123 47.8461 55.7348 46.8684C54.7573 45.8908 53.1835 45.902 52.2196 46.8934L47.4513 51.7975L47.4443 51.8041C47.4382 51.8094 47.4343 51.811 47.4324 51.8118C47.4283 51.8135 47.4222 51.815 47.4145 51.815C47.4068 51.815 47.4006 51.8135 47.3965 51.8118C47.3941 51.8108 47.3883 51.8083 47.3783 51.7983L45.0743 49.4184C44.1125 48.4249 42.5386 48.4103 41.5591 49.3859C40.5795 50.3614 40.5652 51.9577 41.527 52.9512L43.8388 55.339C43.8415 55.3418 43.8444 55.3447 43.8472 55.3476Z" fill="#0D3730"/>
<path d="M43.8472 68.5351C45.7995 70.5325 48.9641 70.548 50.9354 68.582L50.9818 68.5352L50.9864 68.5304L55.7594 63.6214C56.7233 62.63 56.7123 61.0337 55.7348 60.056C54.7573 59.0783 53.1835 59.0895 52.2196 60.0809L47.4513 64.985L47.4443 64.9917C47.4382 64.9969 47.4343 64.9986 47.4324 64.9993C47.4283 65.001 47.4222 65.0026 47.4145 65.0026C47.4068 65.0026 47.4006 65.001 47.3965 64.9993C47.3941 64.9983 47.3883 64.9959 47.3783 64.9859L45.0743 62.6059C44.1125 61.6124 42.5386 61.5979 41.5591 62.5734C40.5795 63.549 40.5652 65.1452 41.527 66.1388L43.8388 68.5265C43.8415 68.5294 43.8444 68.5323 43.8472 68.5351Z" fill="#0D3730"/>
</g>
</svg>
