<svg width="24" height="24" viewBox="0 0 24 24" fill="none" xmlns="http://www.w3.org/2000/svg">
<circle cx="12" cy="12" r="12" fill="#CEAD73"/>
<path d="M10.7433 18.1158C11.1473 18.4309 11.5687 18.7189 12 19C12.4323 18.7226 12.8516 18.4276 13.2567 18.1158C13.932 17.5916 14.5676 17.0232 15.1587 16.4148C16.5213 15.0062 18 12.9643 18 10.6721C18 9.92723 17.8448 9.18965 17.5433 8.50148C17.2417 7.81331 16.7998 7.18802 16.2426 6.66132C15.6855 6.13462 15.0241 5.71681 14.2961 5.43176C13.5681 5.14671 12.7879 5 12 5C11.2121 5 10.4319 5.14671 9.7039 5.43176C8.97595 5.71681 8.31451 6.13462 7.75736 6.66132C7.20021 7.18802 6.75825 7.81331 6.45672 8.50148C6.15519 9.18965 6 9.92723 6 10.6721C6 12.9643 7.47867 15.0056 8.84133 16.4148C9.43241 17.0234 10.068 17.5914 10.7433 18.1158ZM12 12.7204C11.4254 12.7204 10.8743 12.5046 10.4679 12.1204C10.0616 11.7363 9.83333 11.2153 9.83333 10.6721C9.83333 10.1289 10.0616 9.60788 10.4679 9.22376C10.8743 8.83964 11.4254 8.62384 12 8.62384C12.5746 8.62384 13.1257 8.83964 13.5321 9.22376C13.9384 9.60788 14.1667 10.1289 14.1667 10.6721C14.1667 11.2153 13.9384 11.7363 13.5321 12.1204C13.1257 12.5046 12.5746 12.7204 12 12.7204Z" fill="#0D3730"/>
</svg>
