<svg width="88" height="32" viewBox="0 0 88 32" fill="none" xmlns="http://www.w3.org/2000/svg">
<g clip-path="url(#clip0_31_146)">
<path d="M77.416 2.853L76.887 2.187C76.716 1.96977 76.5303 1.76461 76.331 1.573C75.261 0.56 73.824 0 72.305 0H0V32H72.319C73.8124 32.0078 75.2525 31.4452 76.345 30.427C76.548 30.24 76.725 30.04 76.901 29.827C76.914 29.813 76.914 29.8 76.928 29.787L87.745 16.013L77.416 2.853Z" fill="#121214"/>
<path d="M65.513 22.927C61.351 22.927 58.084 19.714 58.084 15.594C58.084 11.727 61.433 8.58 65.54 8.58C67.533 8.58 69.39 9.327 70.786 10.66C71.4796 11.3226 72.0308 12.1195 72.4061 13.0022C72.7815 13.8849 72.973 14.8348 72.969 15.794C72.969 19.727 69.62 22.927 65.513 22.927ZM65.513 11.06C64.143 11.06 62.883 11.54 61.975 12.394C61.053 13.26 60.552 14.487 60.552 15.82C60.552 17.087 61.08 18.26 62.056 19.127C62.992 19.967 64.266 20.447 65.554 20.447C66.882 20.447 68.116 19.967 69.051 19.074C69.5132 18.6392 69.8816 18.1144 70.1334 17.5319C70.3851 16.9494 70.515 16.3216 70.515 15.687C70.515 14.394 69.986 13.207 69.037 12.354C68.088 11.514 66.855 11.06 65.513 11.06ZM31.76 22.874C28.438 22.874 26.988 21.287 26.514 20.594C25.782 19.527 25.714 18.5 25.714 17.367V8.967H28.194V17.367C28.194 18.247 28.249 18.914 28.859 19.527C29.469 20.127 30.512 20.407 32.058 20.407C33.318 20.407 34.145 20.207 34.701 19.78C35.284 19.314 35.569 18.527 35.569 17.367V8.967H38.022V17.367C38.022 18.674 37.955 19.687 37.019 20.874C35.691 22.607 33.157 22.874 31.76 22.874ZM52.241 22.607L49.449 17.674H44.921V22.607H42.427V8.967H50.587C53.217 8.967 55.061 10.767 55.061 13.34C55.061 15.354 53.936 16.94 52.119 17.5L55.061 22.607H52.241ZM50.601 15.22C51.197 15.22 52.593 15.034 52.593 13.247C52.593 12.114 51.834 11.407 50.601 11.407H44.935V15.22H50.601ZM14.638 22.607V11.42H9.89502V8.967H21.823V11.42H17.08V22.607H14.638Z" fill="white"/>
<path d="M65.541 8.607C67.521 8.607 69.377 9.341 70.773 10.687C71.462 11.3494 72.0095 12.1447 72.3825 13.0247C72.7555 13.9047 72.9461 14.8512 72.943 15.807C72.943 19.714 69.608 22.901 65.513 22.901C61.366 22.901 58.099 19.687 58.099 15.594C58.113 11.741 61.447 8.607 65.541 8.607ZM65.541 20.474C66.8434 20.4813 68.0992 19.9901 69.051 19.101C69.5159 18.6655 69.886 18.1388 70.1381 17.5538C70.3902 16.9688 70.5188 16.338 70.516 15.701C70.5189 15.0686 70.3889 14.4427 70.1343 13.8638C69.8796 13.285 69.5061 12.7661 69.038 12.341C68.103 11.501 66.856 11.034 65.514 11.034C64.131 11.034 62.871 11.514 61.949 12.38C61.027 13.26 60.512 14.487 60.512 15.834C60.512 17.101 61.041 18.287 62.017 19.167C62.9972 20.0106 64.2477 20.4744 65.541 20.474ZM50.603 8.994C53.3 8.994 55.049 10.861 55.049 13.354C55.049 15.287 53.979 16.941 52.107 17.501L55.035 22.594H52.27L49.478 17.66H44.909V22.594H42.456V8.994H50.603ZM44.909 15.247H50.603C52.27 15.247 52.623 14.047 52.623 13.247C52.623 12.181 51.945 11.38 50.603 11.38H44.909V15.247ZM38.009 8.994V17.367C38.009 18.66 37.942 19.674 37.007 20.86C35.664 22.594 33.143 22.847 31.761 22.847C28.453 22.847 27.003 21.26 26.541 20.58C25.81 19.514 25.755 18.5 25.755 17.367V8.994H28.182V17.367C28.182 18.247 28.236 18.927 28.86 19.541C29.47 20.141 30.527 20.434 32.072 20.434C33.333 20.434 34.173 20.234 34.729 19.794C35.326 19.327 35.61 18.527 35.61 17.354V8.98H38.01L38.009 8.994ZM21.797 8.994V11.407H17.053V22.594H14.653V11.407H9.90996V8.994H21.797ZM65.541 8.567C61.421 8.567 58.071 11.727 58.071 15.607C58.071 19.727 61.352 22.954 65.527 22.954C69.648 22.954 72.997 19.754 72.997 15.807C72.997 13.847 72.224 12.007 70.814 10.647C69.404 9.301 67.534 8.567 65.541 8.567ZM65.541 20.434C64.253 20.434 62.993 19.954 62.071 19.127C61.108 18.261 60.58 17.087 60.58 15.834C60.58 14.501 61.081 13.287 62.003 12.421C62.911 11.567 64.158 11.087 65.527 11.087C66.856 11.087 68.089 11.554 69.011 12.394C69.4765 12.8119 69.8478 13.324 70.1002 13.8965C70.3526 14.4689 70.4804 15.0884 70.475 15.714C70.4772 16.3436 70.3496 16.967 70.1001 17.5451C69.8506 18.1232 69.4846 18.6437 69.025 19.074C68.0778 19.9522 66.8326 20.4382 65.541 20.434ZM50.603 8.954H42.416V22.634H44.95V17.714H49.437L52.216 22.621L52.229 22.647H55.117L55.077 22.581L52.175 17.541C53.978 16.981 55.103 15.381 55.103 13.367C55.09 10.754 53.246 8.954 50.603 8.954ZM44.95 11.434H50.59C51.823 11.434 52.555 12.114 52.555 13.247C52.555 15.007 51.172 15.207 50.589 15.207H44.95V11.434ZM38.064 8.954H35.57V17.381C35.57 18.541 35.285 19.314 34.702 19.781C34.16 20.207 33.333 20.407 32.086 20.407C30.554 20.407 29.51 20.114 28.9 19.527C28.29 18.927 28.236 18.26 28.236 17.381V8.954H25.715V17.381C25.715 18.514 25.769 19.541 26.515 20.621C26.989 21.314 28.453 22.914 31.775 22.914C33.17 22.914 35.705 22.647 37.061 20.9C37.996 19.714 38.064 18.687 38.064 17.38V8.954ZM21.851 8.955H9.88196V11.461H14.626V22.635H17.106V11.46H21.851V8.955Z" fill="white"/>
</g>
<defs>
<clipPath id="clip0_31_146">
<rect width="88" height="32" fill="white"/>
</clipPath>
</defs>
</svg>
