<svg width="24" height="24" viewBox="0 0 24 24" fill="none" xmlns="http://www.w3.org/2000/svg">
<circle cx="12" cy="12" r="12" fill="#CEAD73"/>
<path d="M17.3 18C15.9111 18 14.5362 17.7 13.1753 17.1C11.8144 16.5 10.5782 15.6444 9.46667 14.5333C8.35511 13.4222 7.49956 12.1889 6.9 10.8333C6.30044 9.47778 6.00044 8.1 6 6.7V6H9.93333L10.55 9.35L8.65 11.2667C8.89444 11.7 9.16667 12.1111 9.46667 12.5C9.76667 12.8889 10.0889 13.25 10.4333 13.5833C10.7556 13.9056 11.1084 14.214 11.492 14.5087C11.8756 14.8033 12.2893 15.0782 12.7333 15.3333L14.6667 13.4L18 14.0833V18H17.3Z" fill="#0D3730"/>
</svg>
