<svg width="36" height="36" viewBox="0 0 36 36" fill="none" xmlns="http://www.w3.org/2000/svg">
<path d="M18.3989 0.299072C23.0275 0.299072 27.4664 2.13775 30.7393 5.41062C34.0122 8.68349 35.8508 13.1224 35.8508 17.751C35.8508 22.3795 34.0122 26.8185 30.7393 30.0913C27.4664 33.3642 23.0275 35.2029 18.3989 35.2029C13.7704 35.2029 9.33144 33.3642 6.05857 30.0913C2.7857 26.8185 0.947021 22.3795 0.947021 17.751C0.947021 13.1224 2.7857 8.68349 6.05857 5.41062C9.33144 2.13775 13.7704 0.299072 18.3989 0.299072ZM18.3989 32.7098C22.3662 32.7098 26.1711 31.1338 28.9764 28.3284C31.7817 25.5231 33.3577 21.7183 33.3577 17.751C33.3577 13.7837 31.7817 9.97884 28.9764 7.17353C26.1711 4.36821 22.3662 2.7922 18.3989 2.7922C14.4316 2.7922 10.6268 4.36821 7.82148 7.17353C5.01616 9.97884 3.44015 13.7837 3.44015 17.751C3.44015 21.7183 5.01616 25.5231 7.82148 28.3284C10.6268 31.1338 14.4316 32.7098 18.3989 32.7098ZM16.5291 23.0638L24.4996 17.751L16.5291 12.4381V23.0638ZM16.9429 9.71562L26.6612 16.1953C26.9173 16.366 27.1272 16.5974 27.2725 16.8688C27.4177 17.1401 27.4937 17.4432 27.4937 17.751C27.4937 18.0588 27.4177 18.3618 27.2725 18.6332C27.1272 18.9046 26.9173 19.1359 26.6612 19.3067L16.9429 25.7863C16.6613 25.9741 16.3341 26.0818 15.9961 26.0982C15.658 26.1145 15.3219 26.0388 15.0235 25.8791C14.7251 25.7194 14.4757 25.4817 14.3018 25.1914C14.1278 24.9011 14.036 24.5691 14.036 24.2306V11.2688C14.036 10.9304 14.1278 10.5983 14.3018 10.308C14.4757 10.0177 14.7251 9.78005 15.0235 9.62037C15.3219 9.46069 15.658 9.38498 15.9961 9.40131C16.3341 9.41765 16.6613 9.52542 16.9429 9.71313V9.71562Z" fill="white"/>
</svg>
