<svg width="53" height="70" viewBox="0 0 53 70" fill="none" xmlns="http://www.w3.org/2000/svg">
<path d="M18.815 38.9667L26.5 33.1L34.1519 38.9667L31.2369 29.4667L38.9219 23.3333H29.5144L26.5 13.9667L23.4856 23.3333H14.0781L21.73 29.4667L18.815 38.9667ZM53 26.6667C53 11.9333 41.1413 0 26.5 0C11.8587 0 0 11.9333 0 26.6667C0 33.4333 2.5175 39.5667 6.625 44.2667V70L26.5 63.3333L46.375 70V44.2667C50.6462 39.4117 53.0029 33.1508 53 26.6667ZM26.5 6.66667C37.4644 6.66667 46.375 15.6333 46.375 26.6667C46.375 37.7 37.4644 46.6667 26.5 46.6667C15.5356 46.6667 6.625 37.7 6.625 26.6667C6.625 15.6333 15.5356 6.66667 26.5 6.66667ZM26.5 56.6667L13.25 60.0667V49.7333C17.1588 52 21.6637 53.3333 26.5 53.3333C31.3363 53.3333 35.8413 52 39.75 49.7333V60.0667L26.5 56.6667Z" fill="#CEAD73"/>
</svg>
