<svg width="155" height="155" viewBox="0 0 155 155" fill="none" xmlns="http://www.w3.org/2000/svg">
<path d="M113.294 80.7523L117.099 76.9478C117.1 76.9466 117.101 76.9454 117.102 76.9442C117.103 76.943 117.105 76.9417 117.106 76.9405L130.527 63.5197C130.527 63.5188 130.528 63.5182 130.529 63.5176C130.53 63.517 130.531 63.5161 130.531 63.5152L143.954 50.0919C143.955 50.0916 143.955 50.0913 143.955 50.091C143.956 50.0907 143.956 50.0904 143.956 50.0901L151.329 42.717C153.696 40.3502 155 37.203 155 33.8557C155 30.5083 153.696 27.3611 151.329 24.9946L130.006 3.67093C127.639 1.30415 124.492 0.000275054 121.145 0.000275054C117.797 0.000275054 114.65 1.30385 112.283 3.67093L74.2477 41.7059L48.4308 15.8887C44.109 11.5668 38.6925 8.49046 32.7665 6.99223L5.65417 0.138625C4.10417 -0.253416 2.46093 0.199172 1.33021 1.33049C0.199199 2.4612 -0.253389 4.10354 0.138652 5.65414L6.99256 32.7664C8.49049 38.6922 11.5669 44.109 15.8887 48.4308L41.7059 74.2477L3.67035 112.283C1.30357 114.65 0 117.797 0 121.144C0 124.492 1.30357 127.639 3.67065 130.005L24.9944 151.329C27.3614 153.696 30.5084 155 33.856 155C37.2033 155 40.3503 153.696 42.717 151.329L63.5079 130.539C63.5113 130.536 63.5143 130.532 63.5176 130.529C63.5209 130.526 63.524 130.523 63.527 130.52L80.7523 113.294L115.718 148.261C120.204 152.746 126.096 154.99 131.989 154.99C137.882 154.99 143.774 152.747 148.26 148.261C157.232 139.289 157.232 124.69 148.26 115.718L113.294 80.7523ZM15.7973 30.5407L10.8094 10.8097L30.5405 15.7979C34.8789 16.8944 38.8445 19.1467 42.0086 22.3109L45.5888 25.891L25.8904 45.5894L22.3103 42.0092C19.1461 38.8447 16.8941 34.8792 15.7973 30.5407ZM32.3124 52.011L52.0107 32.3126L67.8258 48.1278L48.1275 67.8261L32.3124 52.011ZM33.856 145.918C32.9345 145.918 32.0684 145.559 31.4166 144.907L10.0926 123.584C9.44107 122.932 9.08233 122.066 9.08233 121.144C9.08233 120.223 9.44107 119.356 10.0926 118.705L118.705 10.0925C119.356 9.44105 120.223 9.08201 121.145 9.08201C122.066 9.08201 122.932 9.44105 123.584 10.0925L144.908 31.4165C145.559 32.0677 145.918 32.9341 145.918 33.8557C145.918 34.7772 145.559 35.6436 144.908 36.2954L140.745 40.4583L126.893 26.6058C125.12 24.8324 122.244 24.8324 120.471 26.6058C118.697 28.3789 118.697 31.2543 120.471 33.0277L134.323 46.8802L127.318 53.8849L120.179 46.7461C118.406 44.9724 115.531 44.973 113.757 46.7461C111.984 48.5195 111.984 51.3946 113.757 53.168L120.896 60.3068L113.892 67.3115L100.039 53.4589C98.2661 51.6855 95.391 51.6855 93.6176 53.4589C91.8442 55.2321 91.8442 58.1074 93.6176 59.8808L107.47 73.7331L100.465 80.7377L93.326 73.599C91.5529 71.8258 88.6776 71.8258 86.9041 73.599C85.1307 75.3721 85.1307 78.2474 86.9041 80.0209L94.0429 87.1596L87.1596 94.0429L73.3074 80.1907C71.534 78.4173 68.6589 78.4173 66.8855 80.1907C65.1121 81.9638 65.1121 84.8392 66.8855 86.6126L80.7377 100.465L73.7331 107.469L66.5943 100.331C64.8212 98.5576 61.9458 98.5576 60.1724 100.331C58.399 102.104 58.399 104.979 60.1724 106.753L67.3112 113.891L60.3065 120.896L46.4546 107.044C44.6815 105.271 41.8061 105.271 40.0327 107.044C38.2593 108.817 38.2593 111.693 40.0327 113.466L53.8846 127.318L46.8799 134.323L39.7412 127.184C37.968 125.411 35.0927 125.411 33.3192 127.184C31.5458 128.957 31.5458 131.832 33.3192 133.606L40.458 140.745L36.2951 144.907C35.6436 145.559 34.7772 145.918 33.856 145.918ZM90.3523 103.694C90.3586 103.688 90.3647 103.682 90.3711 103.676C90.3774 103.67 90.3835 103.664 90.3895 103.657L103.671 90.3756C103.673 90.3738 103.675 90.3723 103.676 90.3704C103.678 90.3686 103.68 90.3671 103.681 90.3653L106.872 87.1742L126.115 106.417L106.417 126.115L87.1742 106.872L90.3523 103.694ZM141.838 141.838C136.408 147.269 127.571 147.269 122.14 141.838L112.838 132.536L132.537 112.838L141.839 122.14C147.269 127.571 147.269 136.408 141.838 141.838Z" fill="#CEAD73"/>
</svg>
