<svg width="112" height="103" viewBox="0 0 112 103" fill="none" xmlns="http://www.w3.org/2000/svg">
<rect width="112" height="103" fill="#CEAD73"/>
<path d="M71.4765 52.8662L73.0747 51.268L73.0763 51.2665L73.0778 51.265L78.7157 45.627L78.7168 45.6262L78.7176 45.6251L84.3566 39.9862V39.9862L84.3573 39.9854L87.4547 36.8881C88.4491 35.8938 88.9967 34.5717 88.9967 33.1655C88.9967 31.7593 88.449 30.4372 87.4547 29.4431L78.497 20.4853C77.5027 19.491 76.1806 18.9433 74.7744 18.9433C73.3681 18.9433 72.0462 19.4909 71.0519 20.4853L55.0736 36.4633L44.2282 25.6178C42.4127 23.8022 40.1373 22.5099 37.6478 21.8805L26.2582 19.0014C25.6071 18.8367 24.9168 19.0268 24.4418 19.5021C23.9667 19.9771 23.7765 20.667 23.9412 21.3184L26.8205 32.7079C27.4498 35.1973 28.7421 37.4728 30.5577 39.2884L41.4032 50.1338L25.4249 66.1119C24.4306 67.1063 23.883 68.4283 23.883 69.8345C23.883 71.2408 24.4306 72.5626 25.425 73.5569L34.3828 82.5147C35.3772 83.5092 36.6992 84.0569 38.1055 84.0569C39.5117 84.0569 40.8337 83.5092 41.8279 82.5149L50.5619 73.781L50.566 73.777L50.57 73.773L57.8061 66.5368L72.4948 81.2257C74.3793 83.1102 76.8547 84.0525 79.3301 84.0525C81.8056 84.0525 84.2809 83.1103 86.1654 81.2257C89.9345 77.4567 89.9345 71.3241 86.1654 67.5551L71.4765 52.8662ZM30.5193 31.773L28.4239 23.4842L36.7127 25.5796C38.5352 26.0403 40.2011 26.9865 41.5303 28.3157L43.0343 29.8197L34.7593 38.0947L33.2553 36.5907C31.9261 35.2614 30.98 33.5955 30.5193 31.773ZM37.457 40.7923L45.7321 32.5173L52.3758 39.1611L44.1008 47.4361L37.457 40.7923ZM38.1055 80.2416C37.7184 80.2416 37.3545 80.0908 37.0807 79.8171L28.1228 70.8592C27.8491 70.5856 27.6984 70.2216 27.6984 69.8345C27.6984 69.4473 27.8491 69.0834 28.1228 68.8096L73.7495 23.1829C74.0232 22.9092 74.3873 22.7584 74.7744 22.7584C75.1616 22.7584 75.5254 22.9092 75.7992 23.1829L84.7571 32.1409C85.0307 32.4144 85.1816 32.7784 85.1816 33.1655C85.1816 33.5526 85.0307 33.9166 84.7571 34.1904L83.0083 35.9392L77.1891 30.1199C76.4444 29.3749 75.2365 29.3749 74.4914 30.1199C73.7464 30.8648 73.7464 32.0727 74.4914 32.8177L80.3105 38.637L77.3679 41.5796L74.3689 38.5806C73.624 37.8355 72.4161 37.8358 71.6711 38.5806C70.9261 39.3256 70.9261 40.5334 71.6711 41.2784L74.6702 44.2773L71.7276 47.2199L65.9084 41.4006C65.1634 40.6556 63.9556 40.6556 63.2107 41.4006C62.4657 42.1455 62.4657 43.3534 63.2107 44.0984L69.0298 49.9176L66.0872 52.8601L63.0882 49.8612C62.3433 49.1164 61.1354 49.1164 60.3904 49.8612C59.6454 50.6061 59.6454 51.814 60.3904 52.559L63.3893 55.5579L60.4978 58.4495L54.6786 52.6303C53.9336 51.8853 52.7258 51.8853 51.9808 52.6303C51.2358 53.3752 51.2358 54.5831 51.9808 55.3281L57.8 61.1473L54.8574 64.0898L51.8585 61.0909C51.1136 60.3461 49.9057 60.3461 49.1607 61.0909C48.4157 61.8358 48.4157 63.0437 49.1607 63.7887L52.1596 66.7876L49.2171 69.7302L43.398 63.9112C42.6532 63.1663 41.4453 63.1663 40.7003 63.9112C39.9553 64.656 39.9553 65.8639 40.7003 66.6089L46.5193 72.428L43.5767 75.3705L40.5778 72.3716C39.8329 71.6268 38.625 71.6268 37.88 72.3716C37.135 73.1165 37.135 74.3244 37.88 75.0694L40.8789 78.0683L39.1302 79.8171C38.8565 80.0909 38.4925 80.2416 38.1055 80.2416ZM61.8389 62.504C61.8416 62.5014 61.8442 62.4989 61.8468 62.4962C61.8495 62.4935 61.852 62.491 61.8546 62.4883L67.434 56.9089L67.4362 56.9067L67.4383 56.9046L68.7789 55.564L76.8624 63.6475L68.5874 71.9226L60.5039 63.839L61.8389 62.504ZM83.4676 78.5278C81.1862 80.8092 77.474 80.8092 75.1926 78.5278L71.2851 74.6202L79.5602 66.3452L83.4678 70.2526C85.7492 72.5343 85.7492 76.2464 83.4676 78.5278Z" fill="#0D3730"/>
</svg>
