<svg width="111" height="103" viewBox="0 0 111 103" fill="none" xmlns="http://www.w3.org/2000/svg">
<rect width="111" height="103" fill="#CEAD73"/>
<path d="M82.25 39.7222V33.8333C82.25 28.975 78.3125 25 73.5 25H61.8333C59.5875 25 57.5458 25.8833 56 27.2967C54.4542 25.8833 52.4125 25 50.1667 25H38.5C33.6875 25 29.75 28.975 29.75 33.8333V39.7222C24.9375 39.7222 21 43.6972 21 48.5556V63.2778C21 68.1361 24.9375 72.1111 29.75 72.1111V78H35.5833V72.1111H76.4167V78H82.25V72.1111C87.0625 72.1111 91 68.1361 91 63.2778V48.5556C91 43.6972 87.0625 39.7222 82.25 39.7222ZM61.8333 30.8889H73.5C75.1042 30.8889 76.4167 32.2139 76.4167 33.8333V42.0189C74.6375 43.6383 73.5 45.9644 73.5 48.5556V54.4444H58.9167V33.8333C58.9167 32.2139 60.2292 30.8889 61.8333 30.8889ZM35.5833 33.8333C35.5833 32.2139 36.8958 30.8889 38.5 30.8889H50.1667C51.7708 30.8889 53.0833 32.2139 53.0833 33.8333V54.4444H38.5V48.5556C38.5 45.9644 37.3625 43.6383 35.5833 42.0189V33.8333ZM85.1667 63.2778C85.1667 64.8972 83.8542 66.2222 82.25 66.2222H29.75C28.1458 66.2222 26.8333 64.8972 26.8333 63.2778V48.5556C26.8333 46.9361 28.1458 45.6111 29.75 45.6111C31.3542 45.6111 32.6667 46.9361 32.6667 48.5556V60.3333H79.3333V48.5556C79.3333 46.9361 80.6458 45.6111 82.25 45.6111C83.8542 45.6111 85.1667 46.9361 85.1667 48.5556V63.2778Z" fill="#0D3730"/>
</svg>
