<svg width="44" height="72" viewBox="0 0 44 72" fill="none" xmlns="http://www.w3.org/2000/svg">
<path d="M1 72L0 63.2L11.4 31.8C12.4 32.7333 13.484 33.5173 14.652 34.152C15.82 34.7867 17.0693 35.2693 18.4 35.6L7.4 65.8L1 72ZM43 72L36.6 65.8L25.6 35.6C26.9333 35.2667 28.184 34.7827 29.352 34.148C30.52 33.5133 31.6027 32.7307 32.6 31.8L44 63.2L43 72ZM22 32C18.6667 32 15.8333 30.8333 13.5 28.5C11.1667 26.1667 10 23.3333 10 20C10 17.4 10.7507 15.084 12.252 13.052C13.7533 11.02 15.6693 9.60267 18 8.8V0H26V8.8C28.3333 9.6 30.2507 11.0173 31.752 13.052C33.2533 15.0867 34.0027 17.4027 34 20C34 23.3333 32.8333 26.1667 30.5 28.5C28.1667 30.8333 25.3333 32 22 32ZM22 24C23.1333 24 24.084 23.616 24.852 22.848C25.62 22.08 26.0027 21.1307 26 20C25.9973 18.8693 25.6133 17.92 24.848 17.152C24.0827 16.384 23.1333 16 22 16C20.8667 16 19.9173 16.384 19.152 17.152C18.3867 17.92 18.0027 18.8693 18 20C17.9973 21.1307 18.3813 22.0813 19.152 22.852C19.9227 23.6227 20.872 24.0053 22 24Z" fill="#CEAD73"/>
</svg>
